<svg xmlns="http://www.w3.org/2000/svg" viewBox="0 0 24 24" role="img" aria-label="WhatsApp">
  <path fill="none" stroke="#fff" stroke-linecap="round" stroke-linejoin="round" stroke-width="2" d="M12 3.75a8.25 8.25 0 0 0-7.08 12.5l-1 3.63 3.73-.98A8.25 8.25 0 1 0 12 3.75Z"/>
  <path fill="#fff" d="M9.32 7.7c-.24-.03-.5.04-.68.22-.4.38-.8.99-.8 1.78 0 1.4 1.14 3.27 2.68 4.8 1.53 1.54 3.39 2.68 4.8 2.68.8 0 1.4-.4 1.78-.8.18-.18.25-.44.22-.68l-.2-1.45a.8.8 0 0 0-.58-.66l-1.7-.48a.8.8 0 0 0-.8.22l-.5.5a6.9 6.9 0 0 1-1.57-.96 6.9 6.9 0 0 1-.96-1.57l.5-.5a.8.8 0 0 0 .22-.8l-.48-1.7a.8.8 0 0 0-.66-.58l-1.27-.02Z"/>
</svg>
